<?xml version="1.0" encoding="utf-8"?>
<!-- Generator: Adobe Illustrator 15.0.0, SVG Export Plug-In  -->
<!DOCTYPE svg PUBLIC "-//W3C//DTD SVG 1.1//EN" "http://www.w3.org/Graphics/SVG/1.1/DTD/svg11.dtd" [
	<!ENTITY ns_flows "http://ns.adobe.com/Flows/1.0/">
]>
<svg version="1.1"
	 xmlns="http://www.w3.org/2000/svg" xmlns:xlink="http://www.w3.org/1999/xlink" xmlns:a="http://ns.adobe.com/AdobeSVGViewerExtensions/3.0/"
	 x="0px" y="0px" width="100px" height="100px" viewBox="-4.826 -22.607 100 100"
	 overflow="visible" enable-background="new -4.826 -22.607 100 100" xml:space="preserve">
<defs>
</defs>
<path fill="#93938C" d="M75.713,34.084v-3.059h-2.655v3.059H75.713z M75.713,37.606v-3.059h-2.655v3.059H75.713z M76.482,37.606
	h2.654v-3.059h-2.654V37.606z M79.137,34.084v-3.059h-2.654v3.059H79.137z M84.388,42.954H67.845V28.007v-0.616v-2.75l7.868-5.617
	l4.02,2.809h0.231v-2.771h3.347l-0.037,5.232l7.193,5.021L87.062,29.7v13.254H84.388z"/>
<path fill="#93938C" d="M44.647,27.064v-5.501h-4.771v5.501H44.647z M44.647,33.393v-5.502h-4.771v5.502H44.647z M46.013,27.891
	v5.502h4.751v-5.502H46.013z M50.764,27.064v-5.501h-4.751v5.501H50.764z M71.135,18.485l-6.117,0.692v23.776h-4.789H30.528h-4.771
	V18.485h-6.944L44.647,0l7.214,5.059V0h6.481v9.561L71.135,18.485z"/>
<path fill="#93938C" d="M13.985,34.105v-3.06h-2.654v3.06H13.985z M13.985,37.624v-3.059h-2.654v3.059H13.985z M17.408,37.624
	v-3.059h-2.654v3.059H17.408z M17.408,34.105v-3.06h-2.654v3.06H17.408z M22.621,28.026v14.946H6.078H3.404V29.719L0,29.334
	l7.194-5.021l-0.038-5.232h3.347v2.77h0.23l4.021-2.808l7.867,5.616v2.751V28.026z"/>
</svg>
