<?xml version="1.0" encoding="utf-8"?>
<!-- Generator: Adobe Illustrator 15.0.0, SVG Export Plug-In  -->
<!DOCTYPE svg PUBLIC "-//W3C//DTD SVG 1.1//EN" "http://www.w3.org/Graphics/SVG/1.1/DTD/svg11.dtd" [
	<!ENTITY ns_flows "http://ns.adobe.com/Flows/1.0/">
]>
<svg version="1.1"
	 xmlns="http://www.w3.org/2000/svg" xmlns:xlink="http://www.w3.org/1999/xlink" xmlns:a="http://ns.adobe.com/AdobeSVGViewerExtensions/3.0/"
	 x="0px" y="0px" width="100px" height="100px" viewBox="-22.042 -21.571 100 100"
	 overflow="visible" enable-background="new -22.042 -21.571 100 100" xml:space="preserve">
<defs>
</defs>
<path fill="#93938C" d="M8.846,0.331c5.957-0.662,13.077-0.126,19.457-0.126c3.256,0,6.558,0,9.721,0
	c3.213,0,6.582-0.333,9.489,0.126c4.443,0.683,7.016,3.627,7.941,7.105c0.729,2.712,0.236,6.861,0.236,9.968
	c0,3.184,0,6.417,0,10.074c0,7.072,0.572,14.047-0.105,20.052c-0.516,4.396-2.939,7.75-7.01,8.896
	c-2.476,0.689-6.496,0.35-9.953,0.35c-7.322,0-13.399,0-20.641,0c-3.457,0-7.035,0.223-9.724-0.229
	c-3.969-0.692-6.627-3.258-7.592-6.646c-0.739-2.57-0.472-6.338-0.472-10.325c0-7.431,0-14.397,0-21.576
	c0-3.27-0.563-7.437,0.23-10.562C1.388,3.688,4.766,0.783,8.846,0.331z M40.16,7.91c-7.229,0.492-10.597,4.82-9.851,13.049
	c-1.971,0-3.949,0-5.921,0c0,2.486,0,4.979,0,7.47c1.936,0.083,4.185-0.145,5.921,0.123c0,7.308,0,14.632,0,21.942
	c3.212,0,6.409,0,9.608,0c0.084-7.312-0.151-14.95,0.123-22.065c2.213,0,4.432,0,6.645,0c0.268-2.254,0.04-5.009,0.111-7.47
	c-2.248-0.064-4.816,0.159-6.879-0.117c-0.537-4.882,2.229-6.132,6.879-5.578c0-2.408,0-4.818,0-7.232
	C44.606,7.936,42.21,7.771,40.16,7.91z"/>
</svg>
