<?xml version="1.0" encoding="utf-8"?>
<!-- Generator: Adobe Illustrator 15.0.0, SVG Export Plug-In  -->
<!DOCTYPE svg PUBLIC "-//W3C//DTD SVG 1.1//EN" "http://www.w3.org/Graphics/SVG/1.1/DTD/svg11.dtd" [
	<!ENTITY ns_flows "http://ns.adobe.com/Flows/1.0/">
]>
<svg version="1.1"
	 xmlns="http://www.w3.org/2000/svg" xmlns:xlink="http://www.w3.org/1999/xlink" xmlns:a="http://ns.adobe.com/AdobeSVGViewerExtensions/3.0/"
	 x="0px" y="0px" width="29px" height="29px" viewBox="0 0 29 29" overflow="visible" enable-background="new 0 0 29 29"
	 xml:space="preserve">
<defs>
</defs>
<path fill-rule="evenodd" clip-rule="evenodd" fill="#FFFFFF" d="M14.715,0C6.588,0,0,6.589,0,14.715
	C0,22.842,6.588,29.43,14.715,29.43c8.129,0,14.718-6.588,14.718-14.715C29.433,6.589,22.844,0,14.715,0z M13.788,24.694
	c-0.869,0-1.526-0.183-1.964-0.55c-0.44-0.366-0.66-0.911-0.66-1.637c0-0.421,0.163-1.165,0.484-2.227l1.489-4.867
	c0.118-0.375,0.178-0.62,0.178-0.733s-0.028-0.195-0.08-0.247c-0.051-0.052-0.133-0.077-0.247-0.077
	c-0.479,0-1.045,0.61-1.694,1.832H9.94c1.206-2.623,2.91-3.934,5.108-3.934c0.778,0,1.38,0.189,1.812,0.569
	c0.431,0.379,0.646,0.901,0.646,1.565c0,0.487-0.171,1.262-0.514,2.325l-1.448,4.458c-0.211,0.631-0.313,1.026-0.313,1.188
	c0,0.107,0.031,0.187,0.091,0.245c0.062,0.057,0.149,0.086,0.264,0.086c0.243,0,0.556-0.21,0.935-0.628
	c0.383-0.421,0.671-0.823,0.868-1.205h1.425C17.615,23.416,15.94,24.694,13.788,24.694z M18.843,8.5
	c-0.434,0.434-0.95,0.65-1.553,0.65s-1.118-0.217-1.55-0.65c-0.433-0.435-0.65-0.953-0.65-1.556c0-0.614,0.218-1.136,0.65-1.564
	c0.432-0.43,0.947-0.645,1.55-0.645s1.119,0.215,1.553,0.645c0.432,0.429,0.648,0.951,0.648,1.564
	C19.491,7.547,19.274,8.065,18.843,8.5z"/>
</svg>
