<?xml version="1.0" encoding="utf-8"?>
<!-- Generator: Adobe Illustrator 15.0.0, SVG Export Plug-In  -->
<!DOCTYPE svg PUBLIC "-//W3C//DTD SVG 1.1//EN" "http://www.w3.org/Graphics/SVG/1.1/DTD/svg11.dtd" [
	<!ENTITY ns_flows "http://ns.adobe.com/Flows/1.0/">
]>
<svg version="1.1"
	 xmlns="http://www.w3.org/2000/svg" xmlns:xlink="http://www.w3.org/1999/xlink" xmlns:a="http://ns.adobe.com/AdobeSVGViewerExtensions/3.0/"
	 x="0px" y="0px" width="60px" height="60px" viewBox="-6.205 -9.038 60 60"
	 overflow="visible" enable-background="new -6.205 -9.038 60 60" xml:space="preserve">
<defs>
</defs>
<path fill-rule="evenodd" clip-rule="evenodd" fill="#93938C" d="M49.591,5.12c-0.234,1.905-2.941,3.812-4.58,5.264
	C46.638,34.7,19.663,49.872,0,37.546c5.514,0.043,11.618-1.502,14.9-4.68c-4.767-0.781-8.14-2.98-9.462-7.291
	c1.402-0.141,3.368,0.297,4.307-0.297c-4.358-1.684-7.806-4.313-8.029-10.229c1.557,0.169,2.362,1.096,4.299,0.875
	c-2.82-1.843-6.037-8.847-3.151-14.015c5.125,5.779,11.514,10.28,21.502,11.099C21.889,2.268,35.871-4.386,42.142,3.365
	c2.443-0.529,4.502-1.452,6.586-2.335c-0.842,2.439-2.578,3.973-4.287,5.554C46.289,6.23,48.25,5.977,49.591,5.12z"/>
</svg>
