<?xml version="1.0" encoding="utf-8"?>
<!-- Generator: Adobe Illustrator 15.0.0, SVG Export Plug-In  -->
<!DOCTYPE svg PUBLIC "-//W3C//DTD SVG 1.1//EN" "http://www.w3.org/Graphics/SVG/1.1/DTD/svg11.dtd" [
	<!ENTITY ns_flows "http://ns.adobe.com/Flows/1.0/">
]>
<svg version="1.1"
	 xmlns="http://www.w3.org/2000/svg" xmlns:xlink="http://www.w3.org/1999/xlink" xmlns:a="http://ns.adobe.com/AdobeSVGViewerExtensions/3.0/"
	 x="0px" y="0px" width="100px" height="100px" viewBox="-2 -26 100 100"
	 overflow="visible" enable-background="new -2 -26 100 100" xml:space="preserve">
<defs>
</defs>
<path fill="#93938C" d="M86.896,19.39L77,29.339V8H62v16h-5V0H28v24.977l-0.015-0.197L15.678,9.704L0,25.373V46h11V35h6v11h79
	V28.546L86.896,19.39z M38,22h-6v-6h6V22z M38,10h-6V4h6V10z M53,22h-6v-6h6V22z M53,10h-6V4h6V10z M84,40h-2v-7h2V40z M88,40h-2v-7
	h2V40z"/>
</svg>
