<?xml version="1.0" encoding="utf-8"?>
<!-- Generator: Adobe Illustrator 15.0.0, SVG Export Plug-In . SVG Version: 6.00 Build 0)  -->
<!DOCTYPE svg PUBLIC "-//W3C//DTD SVG 1.1//EN" "http://www.w3.org/Graphics/SVG/1.1/DTD/svg11.dtd">
<svg version="1.1" id="Layer_1" xmlns="http://www.w3.org/2000/svg" xmlns:xlink="http://www.w3.org/1999/xlink" x="0px" y="0px"
	 width="19px" height="17px" viewBox="0 0 19 17" enable-background="new 0 0 19 17" xml:space="preserve">
<g>
	<g>
		<path fill="#FFFFFF" d="M4.699,0c0.195,0,0.39,0,0.582,0C7.775,0.27,8.604,1.588,9.65,3.306C10.697,1.584,11.529,0.271,14.021,0
			c0.192,0,0.387,0,0.58,0c3.008,0.375,4.426,2.343,4.699,5.452c0,0.214,0,0.425,0,0.639c-0.41,2.703-2.607,4.779-4.351,6.382
			c-1.853,1.702-3.276,3.115-5.301,4.351c-2.171-1.267-3.582-2.832-5.414-4.466C2.432,10.746,0.579,8.934,0,6.149
			c0-0.233,0-0.466,0-0.697C0.27,2.337,1.694,0.376,4.699,0z"/>
	</g>
</g>
</svg>
