<?xml version="1.0" encoding="utf-8"?>
<!-- Generator: Adobe Illustrator 15.0.0, SVG Export Plug-In  -->
<!DOCTYPE svg PUBLIC "-//W3C//DTD SVG 1.1//EN" "http://www.w3.org/Graphics/SVG/1.1/DTD/svg11.dtd" [
	<!ENTITY ns_flows "http://ns.adobe.com/Flows/1.0/">
]>
<svg version="1.1"
	 xmlns="http://www.w3.org/2000/svg" xmlns:xlink="http://www.w3.org/1999/xlink" xmlns:a="http://ns.adobe.com/AdobeSVGViewerExtensions/3.0/"
	 x="0px" y="0px" width="100px" height="100px" viewBox="-11.588 -28.427 100 100"
	 overflow="visible" enable-background="new -11.588 -28.427 100 100" xml:space="preserve">
<defs>
</defs>
<path fill="#444444" d="M76.98,32.645l4.852-5.516l-10.236-1.705l3.231-4.826l-3.888-1.688l2.394-6.771l-12.241,1.083l7.867-6.945
	L58.45,0.157c-0.302-0.154-0.646-0.197-0.978-0.118c-5.414,1.286-9.804,3.5-13.043,6.58c-2.881,2.729-4.386,5.657-5.383,7.914
	c-0.172,0.399-0.473,1.103-0.717,1.635l-27.454,7.729l-0.099-0.062c-0.954-0.594-2.117-0.787-3.217-0.529l-5.357,1.252
	c-2.616,0.601-2.726,6.898-1.252,12.578c1.33,5.131,4.003,9.756,6.354,9.248c2.219-0.477,5.358-1.252,5.358-1.252
	c1.108-0.258,2.05-0.933,2.648-1.899l0.061-0.099l28.041-5.242c0.052,0.039,0.104,0.086,0.16,0.134
	c0.151,0.129,0.319,0.267,0.5,0.424c0.96,0.812,2.269,1.926,3.946,2.964c2.574,1.631,6.957,3.534,13.19,3.338
	c2.144-0.066,4.397-0.38,6.692-0.929c3.08-0.724,15.215-3.963,15.215-3.963L76.98,32.645z M7.785,44.051
	c-1.565,0.383-3.796-3.236-4.979-8.076c-1.179-4.844-0.858-9.082,0.713-9.465c1.567-0.381,3.798,3.235,4.978,8.076
	C9.674,39.432,9.352,43.67,7.785,44.051z M56.374,4.683c-3.801,1.054-6.858,2.665-9.091,4.787c-2.1,1.988-3.204,4.122-4.01,5.949
	l-0.047,0.108c-0.189,0.441-0.479,1.107-0.713,1.624l-0.963,2.111l-26.935,7.95c-0.079,0.022-0.16,0.032-0.24,0.034
	c-0.447,0.015-0.865-0.278-0.993-0.729c-0.149-0.529,0.16-1.084,0.691-1.232l25.849-7.274l0.771-1.687
	c0.227-0.503,0.51-1.158,0.696-1.588l0.049-0.115c0.891-2.017,2.111-4.371,4.466-6.6c2.47-2.35,5.813-4.122,9.934-5.265
	c0.536-0.146,1.084,0.165,1.231,0.696C57.219,3.984,56.906,4.535,56.374,4.683z"/>
</svg>
