<?xml version="1.0" encoding="utf-8"?>
<!-- Generator: Adobe Illustrator 15.0.0, SVG Export Plug-In  -->
<!DOCTYPE svg PUBLIC "-//W3C//DTD SVG 1.1//EN" "http://www.w3.org/Graphics/SVG/1.1/DTD/svg11.dtd" [
	<!ENTITY ns_flows "http://ns.adobe.com/Flows/1.0/">
]>
<svg version="1.1"
	 xmlns="http://www.w3.org/2000/svg" xmlns:xlink="http://www.w3.org/1999/xlink" xmlns:a="http://ns.adobe.com/AdobeSVGViewerExtensions/3.0/"
	 x="0px" y="0px" width="26px" height="26px" viewBox="0 0.086 26 26" overflow="visible" enable-background="new 0 0.086 26 26"
	 xml:space="preserve">
<defs>
</defs>
<path fill="#93938C" d="M24.865,10.085l-8.862-8.863C15.213,0.433,14.161,0,13.043,0c-1.116,0-2.166,0.433-2.956,1.223l-8.862,8.863
	C0.435,10.874,0,11.926,0,13.044c0,1.115,0.435,2.167,1.225,2.957l8.862,8.861c0.79,0.791,1.84,1.224,2.956,1.224
	c1.118,0,2.17-0.433,2.96-1.224l8.862-8.861c0.791-0.79,1.223-1.842,1.223-2.957C26.088,11.926,25.656,10.874,24.865,10.085z
	 M23.205,14.345l-8.857,8.862c-0.352,0.345-0.813,0.539-1.305,0.539s-0.953-0.194-1.301-0.539L2.88,14.345
	c-0.345-0.349-0.539-0.812-0.539-1.3c0-0.495,0.194-0.955,0.539-1.303l8.861-8.861c0.348-0.347,0.81-0.539,1.301-0.539
	s0.953,0.192,1.305,0.539l8.857,8.861c0.351,0.348,0.541,0.808,0.541,1.303C23.746,13.533,23.556,13.996,23.205,14.345z"/>
<path fill="#93938C" d="M15.027,9.844h-0.066c-3.708,0-4.952,2.7-5.09,4.125l-0.006,4.466h2.341v-4.274
	c0.068-0.429,0.466-1.974,2.755-1.974h0.066v2.376l3.559-3.558l-3.559-3.558V9.844z"/>
</svg>
