<?xml version="1.0" encoding="utf-8"?>
<!-- Generator: Adobe Illustrator 15.0.0, SVG Export Plug-In  -->
<!DOCTYPE svg PUBLIC "-//W3C//DTD SVG 1.1//EN" "http://www.w3.org/Graphics/SVG/1.1/DTD/svg11.dtd" [
	<!ENTITY ns_flows "http://ns.adobe.com/Flows/1.0/">
]>
<svg version="1.1"
	 xmlns="http://www.w3.org/2000/svg" xmlns:xlink="http://www.w3.org/1999/xlink" xmlns:a="http://ns.adobe.com/AdobeSVGViewerExtensions/3.0/"
	 x="0px" y="0px" width="100px" height="100px" viewBox="-21.306 -21.306 100 100"
	 overflow="visible" enable-background="new -21.306 -21.306 100 100" xml:space="preserve">
<defs>
</defs>
<path fill="none" d="M36.429,29.62c-0.326-0.434-0.707-0.811-1.146-1.129c-0.439-0.32-0.912-0.604-1.422-0.85
	c-0.508-0.244-1.035-0.461-1.58-0.648c-0.551-0.188-1.098-0.362-1.646-0.521l0.6-6.078c0.355,0.103,0.687,0.224,1,0.359
	c0.316,0.138,0.609,0.266,0.882,0.386c0.274,0.12,0.526,0.219,0.754,0.3c0.229,0.08,0.437,0.12,0.616,0.12
	c0.275,0,0.513-0.066,0.714-0.197c0.196-0.131,0.393-0.339,0.588-0.625l1.301-1.899c-0.616-0.583-1.369-1.128-2.26-1.636
	c-0.89-0.508-1.951-0.875-3.185-1.103l0.344-3.374h-1.952c-0.397,0-0.726,0.132-0.976,0.393c-0.252,0.261-0.393,0.553-0.428,0.878
	l-0.188,1.931c-1.324,0-2.5,0.222-3.525,0.662c-1.029,0.441-1.893,1.004-2.596,1.692c-0.701,0.687-1.236,1.46-1.602,2.319
	c-0.365,0.858-0.545,1.74-0.545,2.644c0,1.227,0.201,2.246,0.607,3.059c0.404,0.812,0.934,1.483,1.584,2.011
	c0.65,0.528,1.381,0.945,2.189,1.254c0.811,0.31,1.625,0.578,2.449,0.808l-0.633,6.472c-0.514-0.138-0.973-0.312-1.371-0.521
	c-0.4-0.211-0.768-0.42-1.105-0.624c-0.334-0.207-0.648-0.382-0.93-0.523c-0.287-0.143-0.566-0.213-0.842-0.213
	c-0.262,0-0.51,0.063-0.742,0.196c-0.234,0.13-0.42,0.295-0.559,0.488l-1.643,2.379c0.822,0.764,1.83,1.418,3.023,1.959
	c1.189,0.543,2.441,0.923,3.756,1.138l-0.342,3.528h1.95c0.398,0,0.724-0.129,0.976-0.387c0.252-0.256,0.396-0.543,0.429-0.863
	l0.204-2.141c1.324-0.103,2.5-0.386,3.527-0.847c1.024-0.463,1.894-1.06,2.603-1.79c0.707-0.729,1.245-1.572,1.608-2.523
	c0.364-0.953,0.549-1.972,0.549-3.056c0-0.72-0.092-1.36-0.274-1.926C37.008,30.554,36.756,30.056,36.429,29.62z M27.502,25.442
	c-0.696-0.283-1.258-0.634-1.688-1.051c-0.426-0.417-0.641-0.962-0.641-1.636c0-0.297,0.049-0.578,0.152-0.847
	c0.104-0.269,0.268-0.511,0.488-0.728c0.225-0.216,0.514-0.402,0.875-0.557c0.356-0.154,0.799-0.271,1.326-0.352L27.502,25.442z
	 M29.606,36.946l0.547-5.647c0.685,0.261,1.234,0.587,1.65,0.976c0.418,0.389,0.625,0.906,0.625,1.557
	C32.431,35.576,31.487,36.616,29.606,36.946z"/>
<path fill="#93938C" d="M25.813,21.182c-0.221,0.217-0.385,0.459-0.487,0.728s-0.152,0.55-0.152,0.847
	c0,0.674,0.216,1.219,0.642,1.636c0.43,0.417,0.99,0.768,1.688,1.051l0.514-5.169c-0.526,0.081-0.969,0.197-1.326,0.352
	C26.328,20.779,26.039,20.966,25.813,21.182z"/>
<path fill="#93938C" d="M30.153,31.299l-0.547,5.647c1.881-0.33,2.822-1.37,2.822-3.116c0-0.649-0.207-1.168-0.625-1.558
	C31.39,31.886,30.838,31.56,30.153,31.299z"/>
<path fill="#93938C" d="M28.304,0C12.672,0,0,12.672,0,28.304c0,15.631,12.672,28.304,28.304,28.304
	c15.633,0,28.304-12.673,28.304-28.304C56.607,12.672,43.937,0,28.304,0z M28.304,53.609c-13.954,0-25.306-11.354-25.306-25.307
	c0-13.953,11.352-25.304,25.306-25.304c13.953,0,25.306,11.352,25.306,25.305C53.609,42.257,42.257,53.609,28.304,53.609z"/>
<path fill="#93938C" d="M28.304,5.562c-12.541,0-22.743,10.202-22.743,22.742c0,12.541,10.202,22.743,22.743,22.743
	c12.54,0,22.743-10.202,22.743-22.743C51.047,15.764,40.844,5.562,28.304,5.562z M36.916,36.101
	c-0.362,0.951-0.901,1.795-1.608,2.523c-0.709,0.73-1.576,1.327-2.603,1.79c-1.026,0.461-2.203,0.744-3.526,0.847l-0.205,2.141
	c-0.033,0.32-0.177,0.607-0.429,0.863c-0.252,0.258-0.576,0.387-0.976,0.387h-1.95l0.342-3.528
	c-1.314-0.215-2.566-0.595-3.756-1.138c-1.193-0.541-2.201-1.195-3.023-1.959l1.643-2.379c0.139-0.193,0.324-0.358,0.559-0.488
	c0.232-0.133,0.48-0.196,0.742-0.196c0.275,0,0.555,0.07,0.842,0.213c0.281,0.144,0.596,0.316,0.93,0.523
	c0.338,0.204,0.705,0.413,1.105,0.624c0.398,0.21,0.857,0.385,1.371,0.521l0.633-6.471c-0.824-0.229-1.639-0.498-2.449-0.808
	c-0.809-0.309-1.539-0.727-2.189-1.254c-0.65-0.526-1.18-1.197-1.584-2.011c-0.406-0.812-0.607-1.832-0.607-3.059
	c0-0.903,0.18-1.785,0.545-2.644c0.365-0.859,0.9-1.633,1.602-2.319c0.703-0.688,1.566-1.251,2.596-1.692
	c1.025-0.44,2.201-0.662,3.525-0.662l0.188-1.931c0.035-0.325,0.176-0.617,0.428-0.878c0.25-0.261,0.576-0.393,0.976-0.393h1.953
	l-0.345,3.374c1.232,0.228,2.295,0.595,3.185,1.103c0.892,0.508,1.644,1.053,2.26,1.636l-1.301,1.899
	c-0.195,0.286-0.392,0.494-0.588,0.625c-0.201,0.131-0.438,0.197-0.714,0.197c-0.182,0-0.389-0.04-0.616-0.12
	c-0.228-0.081-0.479-0.18-0.754-0.3c-0.271-0.12-0.564-0.248-0.882-0.386c-0.313-0.136-0.645-0.257-1-0.359l-0.6,6.077
	c0.549,0.16,1.096,0.334,1.646,0.522c0.545,0.188,1.072,0.404,1.58,0.648c0.51,0.246,0.981,0.528,1.422,0.85
	c0.439,0.318,0.82,0.695,1.146,1.129c0.327,0.435,0.579,0.934,0.762,1.499c0.184,0.563,0.274,1.206,0.274,1.926
	C37.465,34.129,37.281,35.146,36.916,36.101z"/>
<path fill="#FFFFFF" d="M28.304,2.999c-13.954,0-25.306,11.352-25.306,25.305c0,13.953,11.352,25.306,25.306,25.306
	c13.953,0,25.306-11.354,25.306-25.307C53.609,14.35,42.257,2.999,28.304,2.999z M28.304,51.047
	c-12.541,0-22.743-10.202-22.743-22.743c0-12.54,10.202-22.742,22.743-22.742c12.54,0,22.743,10.202,22.743,22.742
	C51.047,40.845,40.844,51.047,28.304,51.047z"/>
</svg>
