<?xml version="1.0" encoding="utf-8"?>
<!-- Generator: Adobe Illustrator 15.0.0, SVG Export Plug-In  -->
<!DOCTYPE svg PUBLIC "-//W3C//DTD SVG 1.1//EN" "http://www.w3.org/Graphics/SVG/1.1/DTD/svg11.dtd" [
	<!ENTITY ns_flows "http://ns.adobe.com/Flows/1.0/">
]>
<svg version="1.1"
	 xmlns="http://www.w3.org/2000/svg" xmlns:xlink="http://www.w3.org/1999/xlink" xmlns:a="http://ns.adobe.com/AdobeSVGViewerExtensions/3.0/"
	 x="0px" y="0px" width="200px" height="59px" viewBox="-5.064 -6.138 200 59"
	 overflow="visible" enable-background="new -5.064 -6.138 200 59" xml:space="preserve">
<defs>
</defs>
<path fill="#FFFFFF" d="M29.349,16.604C39.789,13.074,40.584,0,30.294,0c-2.834,0-6.214,1.988-8.551,6.065L7.823,30.126
	c-0.646,1.144-1.292,2.088-1.988,2.933C2.256,28.138,3.3,20.78,8.32,17.549l-2.088-2.635c-10.837,6.91-7.656,26.845,10.44,26.845
	C32.133,41.759,39.292,23.216,29.349,16.604z M16.573,37.782c-3.083,0-5.519-0.696-7.457-1.79c0.895-1.044,1.79-2.336,2.585-3.679
	l8.7-15.063l1.392,0.149C33.923,19.935,29.101,37.782,16.573,37.782z M22.141,14.218l4.176-7.159
	c3.778-6.512,8.601-2.685,6.016,2.188C30.344,12.975,27.41,14.119,22.141,14.218z"/>
<path fill="#FFFFFF" d="M189.275,27.541l-0.348,0.397c-2.884,3.381-6.313,6.165-9.445,7.258c0.845-1.342,1.491-2.784,2.137-3.877
	l5.717-9.793c4.822-8.203-2.983-10.937-8.252-6.214l1.044-1.79h-5.17l-8.086,14.028c-0.005-0.002-0.011-0.007-0.017-0.009
	l-0.348,0.397c-3.729,4.325-8.501,7.755-12.13,7.755c-3.182,0-5.07-1.988-2.685-6.165l0.498-0.895
	c3.331,1.392,9.594,0.746,13.472-5.966l0.746-1.292c2.784-4.772,0.1-8.352-4.126-8.352c-4.176,0-7.507,2.187-9.694,5.965
	l-5.009,8.594l-0.31,0.354c-3.729,4.325-8.501,7.755-12.13,7.755c-3.182,0-5.071-1.988-2.685-6.165l0.497-0.895
	c3.331,1.392,9.595,0.746,13.472-5.966l0.746-1.292c2.784-4.772,0.1-8.352-4.126-8.352c-4.176,0-7.507,2.187-9.694,5.965
	l-5.009,8.594l-0.31,0.354c-3.729,4.325-7.357,7.755-9.645,7.755c-1.143,0-1.79-0.795-0.597-2.833l7.457-13.075
	c2.237-3.927,0.1-6.761-2.784-6.761c-2.237,0-4.624,1.243-7.208,3.927l8.252-14.367h-5.17L103.917,27.6l-0.296,0.338
	c-3.729,4.325-8.302,7.755-13.422,7.755c-3.53,0-5.667-3.53-2.585-8.799l1.442-2.535c0.945,0.149,1.889,0.249,2.933,0.249
	c5.518,0,11.782-2.833,15.858-9.943c1.442-2.535,2.088-4.921,2.088-6.959c0-4.673-3.032-7.706-6.86-7.706
	c-2.833,0-6.214,1.988-8.551,6.065l-8.053,13.87c-3.033-1.591-4.624-4.475-4.624-7.358c0-2.386,1.094-4.772,3.331-6.512l-1.69-3.033
	c-3.679,2.635-5.319,6.165-5.319,9.645c0,4.126,2.337,8.103,6.513,10.291l-1.541,2.685c-0.366,0.632-0.658,1.271-0.908,1.91
	c-0.012-0.005-0.025-0.016-0.037-0.021l-0.348,0.397c-3.729,4.325-7.357,7.755-9.644,7.755c-1.144,0-1.79-0.795-0.597-2.833
	l5.17-9.048c1.79-3.132,0.944-4.971-0.746-7.01l-2.883-3.48c-0.746-0.944-0.746-1.988,0.298-2.982L70.76,7.407
	c-2.933,2.635-3.182,5.568-1.342,7.954l0.447,0.597c-2.287,3.231-5.369,7.606-8.75,11.583l-0.348,0.397
	c-3.729,4.325-7.357,7.755-9.645,7.755c-1.143,0-1.79-0.795-0.597-2.833l8.352-14.616h-2.933c0.199-2.188-2.038-5.22-5.419-5.22
	c-2.784,0-6.661,2.187-8.849,5.965L34.42,31.518c-2.188,3.828-0.646,7.357,3.529,7.357c2.088,0,4.673-1.342,7.159-3.38
	c0.249,1.988,1.839,3.38,4.474,3.38c4.275,0,9.197-4.574,13.473-9.545c2.485-2.883,4.424-5.468,8.55-11.086l0.696,0.845
	c0.646,0.845,0.895,1.889,0.299,2.933l-5.469,9.495c-2.188,3.828-0.646,7.357,3.53,7.357c3.402,0,7.213-2.899,10.783-6.588
	c0.271,3.713,2.818,6.588,7.512,6.588c4.149,0,7.502-1.333,10.384-3.334l-1.635,2.837h5.22l7.854-13.671
	c7.954-9.993,11.484-8.7,9.247-4.872l-6.711,11.683c-2.188,3.828-0.646,7.357,3.529,7.357c3.077,0,6.489-2.374,9.754-5.556
	c0.246,3.221,2.854,5.556,7,5.556c4.297,0,8.565-2.458,12.223-5.726c0.166,3.31,2.796,5.726,7.016,5.726
	c3.297,0,6.579-1.445,9.58-3.594l-8.089,14.034h5.22l15.461-26.895c5.767-7.854,9.396-4.971,8.054-2.635l-7.805,13.522
	c-0.845,1.492-2.784,1.939-3.728,0l-2.934,1.392c0,0,0.945,4.176,5.667,4.176h0.298c7.507-0.149,12.428-4.623,16.654-9.545
	C190.916,28.535,190.021,27.74,189.275,27.541z M157.012,20.283c2.983-5.12,8.253-4.275,5.17,1.094l-0.746,1.292
	c-2.486,4.226-5.816,4.126-7.755,3.43L157.012,20.283z M137.773,20.283c2.982-5.12,8.252-4.275,5.17,1.094l-0.746,1.292
	c-2.486,4.226-5.816,4.126-7.755,3.43L137.773,20.283z M98.4,8.252c1.541-2.635,3.231-3.778,4.673-3.778
	c1.939,0,2.834,1.292,2.834,3.182c0,4.822-5.866,13.522-13.92,13.522h-1.044L98.4,8.252z M47.842,28.436
	c-3.132,4.921-6.214,7.258-8.352,7.258c-1.144,0-1.79-0.795-0.597-2.833l7.208-12.578c2.784-4.822,8.302-3.579,5.767,1.094
	L47.842,28.436z"/>
</svg>
